<svg xmlns="http://www.w3.org/2000/svg" viewBox="0 0 1200 800" width="1200" height="800">
  <title>Forest camp — multi-day retreat scene</title>
  <desc>Forest with tall trees, a tent, a campfire with rising smoke, and a few people gathered. For multi-day events and retreats imagery.</desc>

  <defs>
    <linearGradient id="forestSky" x1="0" y1="0" x2="0" y2="1">
      <stop offset="0%" stop-color="#F2D9A8"/>
      <stop offset="100%" stop-color="#E6C079"/>
    </linearGradient>
  </defs>

  <!-- Sky -->
  <rect width="1200" height="525" fill="url(#forestSky)"/>

  <!-- Distant tree line (greener, fuller) -->
  <g fill="#73804A">
    <path d="M -20 525 L 60 300 L 110 380 L 170 290 L 230 390 L 290 320 L 360 525 Z"/>
    <path d="M 320 525 L 400 320 L 450 390 L 510 300 L 570 395 L 630 330 L 700 525 Z"/>
    <path d="M 660 525 L 740 315 L 800 385 L 860 295 L 920 390 L 980 320 L 1060 525 Z"/>
    <path d="M 1000 525 L 1080 330 L 1140 400 L 1200 320 L 1240 420 L 1280 360 L 1320 525 Z"/>
  </g>

  <!-- Big pine trees (prominent, green) -->
  <g fill="#3F4C29">
    <g transform="translate(165, 520) scale(1.30)">
      <rect x="-9" y="0" width="18" height="70" fill="#6B3410"/>
      <path d="M 0 -210 L -48 -105 L -26 -105 L -58 -42 L -32 -42 L -68 32 L 68 32 L 32 -42 L 58 -42 L 26 -105 L 48 -105 Z"/>
    </g>
    <g transform="translate(1045, 514) scale(1.45)">
      <rect x="-9" y="0" width="18" height="74" fill="#6B3410"/>
      <path d="M 0 -210 L -48 -105 L -26 -105 L -58 -42 L -32 -42 L -68 32 L 68 32 L 32 -42 L 58 -42 L 26 -105 L 48 -105 Z"/>
    </g>
    <g transform="translate(355, 522) scale(0.82)">
      <rect x="-9" y="0" width="18" height="66" fill="#6B3410"/>
      <path d="M 0 -210 L -48 -105 L -26 -105 L -58 -42 L -32 -42 L -68 32 L 68 32 L 32 -42 L 58 -42 L 26 -105 L 48 -105 Z"/>
    </g>
  </g>

  <!-- Ground (greener, small earth band) -->
  <path d="M 0 525 Q 600 508 1200 525 L 1200 800 L 0 800 Z" fill="#83904D"/>
  <path d="M 0 665 Q 600 650 1200 665 L 1200 800 L 0 800 Z" fill="#6E5E3A"/>

  <!-- Tent in the forest -->
  <g transform="translate(900, 612) scale(1.12)">
    <path d="M 0 -96 L -74 2 L 74 2 Z" fill="#C25E2A"/>
    <path d="M 0 -96 L 74 2 L 38 2 L 0 -82 Z" fill="#A8491E"/>
    <path d="M 0 -90 L -24 2 L 24 2 Z" fill="#5E2F14"/>
    <line x1="0" y1="-96" x2="0" y2="-110" stroke="#6B3410" stroke-width="4" stroke-linecap="round"/>
    <path d="M -74 2 L -86 2 M 74 2 L 86 2" stroke="#6B3410" stroke-width="3"/>
  </g>

  <!-- People seated around the fire — articulated figures with arms and brand-coloured
       clothing, matching the dance/music illustrations (terracotta / olive / gold). -->

  <!-- back person, behind the fire (gold top, smallest for depth) -->
  <g transform="translate(560, 538) scale(0.64)">
    <path d="M -40 0 Q -46 -26 -14 -30 L 14 -30 Q 46 -26 40 0 Z" fill="#6B3410"/>
    <path d="M -17 -84 Q -21 -55 -19 -30 L 19 -30 Q 21 -55 17 -84 Q 9 -95 0 -95 Q -9 -95 -17 -84 Z" fill="#D4A047"/>
    <circle cx="0" cy="-114" r="15" fill="#6B3410"/>
    <path d="M -15 -80 Q -33 -62 -28 -36" stroke="#6B3410" stroke-width="7" fill="none" stroke-linecap="round"/>
    <path d="M 15 -80 Q 33 -62 28 -36" stroke="#6B3410" stroke-width="7" fill="none" stroke-linecap="round"/>
  </g>

  <!-- front-left person (dark-green top — stands out against the olive ground) -->
  <g transform="translate(502, 582) scale(0.86)">
    <path d="M -40 0 Q -46 -26 -14 -30 L 14 -30 Q 46 -26 40 0 Z" fill="#6B3410"/>
    <path d="M -17 -84 Q -21 -55 -19 -30 L 19 -30 Q 21 -55 17 -84 Q 9 -95 0 -95 Q -9 -95 -17 -84 Z" fill="#3F4C29"/>
    <circle cx="0" cy="-114" r="15" fill="#6B3410"/>
    <path d="M -15 -80 Q -34 -62 -29 -34" stroke="#6B3410" stroke-width="7" fill="none" stroke-linecap="round"/>
    <path d="M 15 -80 Q 30 -66 30 -38" stroke="#6B3410" stroke-width="7" fill="none" stroke-linecap="round"/>
  </g>

  <!-- front-right person (terracotta top) -->
  <g transform="translate(706, 580) scale(0.84)">
    <path d="M -40 0 Q -46 -26 -14 -30 L 14 -30 Q 46 -26 40 0 Z" fill="#6B3410"/>
    <path d="M -17 -84 Q -21 -55 -19 -30 L 19 -30 Q 21 -55 17 -84 Q 9 -95 0 -95 Q -9 -95 -17 -84 Z" fill="#C25E2A"/>
    <circle cx="0" cy="-114" r="15" fill="#6B3410"/>
    <path d="M -15 -80 Q -30 -66 -30 -38" stroke="#6B3410" stroke-width="7" fill="none" stroke-linecap="round"/>
    <path d="M 15 -80 Q 34 -62 29 -34" stroke="#6B3410" stroke-width="7" fill="none" stroke-linecap="round"/>
  </g>

  <!-- Campfire (raised toward the centre, taller / more vertical flames) -->
  <g transform="translate(604, 556) scale(1.4)">
    <path d="M -30 6 L 30 -4" stroke="#6B3410" stroke-width="10" stroke-linecap="round"/>
    <path d="M -30 -4 L 30 6" stroke="#7A4A24" stroke-width="10" stroke-linecap="round"/>
    <path d="M 0 -4 Q -20 -26 -10 -60 Q -2 -42 2 -62 Q 1 -32 11 -52 Q 18 -26 0 -4 Z" fill="#E2742E"/>
    <path d="M 0 -8 Q -10 -30 -3 -58 Q 2 -40 6 -56 Q 10 -28 0 -8 Z" fill="#F4C95D"/>
  </g>

  <!-- Smoke: cone rising from the fire — small + denser at the base, growing into a
       wider, fuller cloud toward the top (more + bigger bubbles up high). -->
  <g fill="#9C9488">
    <!-- rising column -->
    <circle cx="606" cy="460" r="15" opacity="0.46"/>
    <circle cx="614" cy="420" r="20" opacity="0.43"/>
    <circle cx="600" cy="378" r="25" opacity="0.39"/>
    <circle cx="617" cy="334" r="30" opacity="0.34"/>
    <circle cx="601" cy="288" r="35" opacity="0.30"/>
    <circle cx="616" cy="242" r="40" opacity="0.25"/>
    <!-- upper cloud: more and bigger bubbles, fanning out -->
    <circle cx="602" cy="200" r="44" opacity="0.21"/>
    <circle cx="642" cy="208" r="30" opacity="0.18"/>
    <circle cx="566" cy="212" r="28" opacity="0.17"/>
    <circle cx="610" cy="158" r="46" opacity="0.15"/>
    <circle cx="574" cy="168" r="30" opacity="0.12"/>
    <circle cx="648" cy="170" r="30" opacity="0.12"/>
    <circle cx="606" cy="116" r="42" opacity="0.09"/>
  </g>

  <!-- A few sparkles -->
  <g fill="#F7EFE0" opacity="0.6">
    <circle cx="300" cy="210" r="2"/>
    <circle cx="430" cy="290" r="1.5"/>
    <circle cx="800" cy="200" r="2"/>
    <circle cx="880" cy="285" r="1.5"/>
  </g>

</svg>
