<svg xmlns="http://www.w3.org/2000/svg" viewBox="0 0 1200 500" width="1200" height="500">
  <title>Dancing silhouettes — ecstatic movement</title>
  <desc>Row of stylized dancing figures expressing joy and movement. Use as a section header or page footer band.</desc>

  <rect width="1200" height="500" fill="#F7EFE0"/>

  <!-- Floor shadow -->
  <ellipse cx="600" cy="440" rx="500" ry="20" fill="#6B3410" opacity="0.15"/>

  <!-- Sun behind figures -->
  <circle cx="600" cy="200" r="180" fill="#F2D9A8"/>
  <circle cx="600" cy="200" r="140" fill="#D4A047" opacity="0.5"/>

  <g fill="#6B3410">

    <!-- Figure 1: arms outstretched, twirling -->
    <g transform="translate(150, 300)">
      <circle cx="0" cy="-100" r="22"/>
      <path d="M -8 -78 Q -15 -40 -20 0 L -28 80 L -18 80 L -10 30 L -2 0 L 2 0 L 10 30 L 18 80 L 28 80 L 20 0 Q 15 -40 8 -78 Z"/>
      <!-- arms out -->
      <path d="M -10 -70 Q -55 -80 -80 -55" stroke="#6B3410" stroke-width="8" fill="none" stroke-linecap="round"/>
      <path d="M 10 -70 Q 55 -80 80 -55" stroke="#6B3410" stroke-width="8" fill="none" stroke-linecap="round"/>
      <!-- skirt -->
      <path d="M -22 0 Q -55 50 -60 100 L 60 100 Q 55 50 22 0 Z" fill="#C25E2A"/>
    </g>

    <!-- Figure 2: jumping, arms up -->
    <g transform="translate(330, 320)">
      <circle cx="0" cy="-110" r="20"/>
      <path d="M -8 -90 Q -10 -50 -12 -10 L -20 60 L -10 60 L -3 10 L 3 10 L 10 60 L 20 60 L 12 -10 Q 10 -50 8 -90 Z"/>
      <!-- arms straight up -->
      <line x1="-8" y1="-85" x2="-25" y2="-145" stroke="#6B3410" stroke-width="8" stroke-linecap="round"/>
      <line x1="8" y1="-85" x2="25" y2="-145" stroke="#6B3410" stroke-width="8" stroke-linecap="round"/>
      <!-- bent legs -->
      <path d="M -12 30 Q -35 50 -40 80" stroke="#6B3410" stroke-width="14" fill="none" stroke-linecap="round"/>
      <path d="M 12 30 Q 35 50 40 80" stroke="#6B3410" stroke-width="14" fill="none" stroke-linecap="round"/>
    </g>

    <!-- Figure 3 (center): tall, arms in spiral -->
    <g transform="translate(550, 350)">
      <circle cx="0" cy="-130" r="24"/>
      <path d="M -10 -106 Q -12 -60 -14 0 L -25 90 L -12 90 L -4 20 L 4 20 L 12 90 L 25 90 L 14 0 Q 12 -60 10 -106 Z"/>
      <path d="M -10 -90 Q -50 -100 -60 -50 Q -55 -20 -25 -10" stroke="#6B3410" stroke-width="8" fill="none" stroke-linecap="round"/>
      <path d="M 10 -90 Q 50 -100 60 -50 Q 55 -20 25 -10" stroke="#6B3410" stroke-width="8" fill="none" stroke-linecap="round"/>
      <path d="M -25 20 Q -60 60 -70 110 L 70 110 Q 60 60 25 20 Z" fill="#7A8B4A"/>
    </g>

    <!-- Figure 4: side-bending -->
    <g transform="translate(800, 320)">
      <circle cx="20" cy="-115" r="20"/>
      <path d="M 12 -95 Q 5 -50 -2 0 L -10 60 L 0 60 L 5 10 L 13 10 L 18 60 L 28 60 L 22 0 Q 25 -50 28 -95 Z"/>
      <path d="M 14 -90 Q -10 -80 -25 -50" stroke="#6B3410" stroke-width="8" fill="none" stroke-linecap="round"/>
      <path d="M 26 -90 Q 60 -50 70 0" stroke="#6B3410" stroke-width="8" fill="none" stroke-linecap="round"/>
    </g>

    <!-- Figure 5: arms wide, foot kicked back -->
    <g transform="translate(1020, 310)">
      <circle cx="0" cy="-105" r="22"/>
      <path d="M -8 -83 Q -10 -45 -12 -5 L -18 65 L -8 65 L -2 15 L 4 15 L 10 65 L 20 65 L 14 -5 Q 12 -45 10 -83 Z"/>
      <path d="M -10 -75 Q -55 -65 -80 -30" stroke="#6B3410" stroke-width="8" fill="none" stroke-linecap="round"/>
      <path d="M 10 -75 Q 55 -65 80 -30" stroke="#6B3410" stroke-width="8" fill="none" stroke-linecap="round"/>
      <path d="M -20 -5 Q -45 40 -65 50" fill="#D4A047" stroke="#6B3410" stroke-width="3"/>
    </g>

  </g>

  <!-- Energy lines / movement marks -->
  <g stroke="#C25E2A" stroke-width="2" fill="none" stroke-linecap="round" opacity="0.6">
    <path d="M 80 250 Q 100 240 110 250"/>
    <path d="M 90 230 Q 105 220 115 230"/>
    <path d="M 1100 250 Q 1080 240 1070 250"/>
    <path d="M 1090 230 Q 1075 220 1065 230"/>
    <circle cx="60" cy="380" r="3" fill="#C25E2A"/>
    <circle cx="1130" cy="380" r="3" fill="#C25E2A"/>
    <circle cx="70" cy="350" r="2" fill="#D4A047"/>
    <circle cx="1120" cy="350" r="2" fill="#D4A047"/>
  </g>

</svg>
